<svg xmlns="http://www.w3.org/2000/svg" viewBox="0 0 24 24" fill="none" stroke="currentColor" stroke-width="2" stroke-linecap="round" stroke-linejoin="round"><circle cx="13.5" cy="6.5" r=".5"/><circle cx="17.5" cy="10.5" r=".5"/><circle cx="8.5" cy="7.5" r=".5"/><circle cx="6.5" cy="12.5" r=".5"/><path d="M12 2C6.5 2 2 6.5 2 12s4.5 10 10 10c.926 0 1.648-.746 1.648-1.688 0-.437-.18-.835-.437-1.125-.29-.289-.438-.652-.438-1.125 0-.94.746-1.688 1.688-1.688h1.998c3.042 0 5.541-2.5 5.541-5.541C24 6.013 18.5 2 12 2z"/></svg>