<svg xmlns="http://www.w3.org/2000/svg" viewBox="0 0 800 600" preserveAspectRatio="xMidYMid slice">
  <defs>
    <linearGradient id="nhbg" x1="0%" y1="0%" x2="100%" y2="100%">
      <stop offset="0%" stop-color="#1a1a2e"/>
      <stop offset="50%" stop-color="#0f0f1a"/>
      <stop offset="100%" stop-color="#000000"/>
    </linearGradient>
    <radialGradient id="nhglow1" cx="20%" cy="30%" r="50%">
      <stop offset="0%" stop-color="#cc0000" stop-opacity="0.4"/>
      <stop offset="100%" stop-color="#cc0000" stop-opacity="0"/>
    </radialGradient>
    <radialGradient id="nhglow2" cx="80%" cy="80%" r="50%">
      <stop offset="0%" stop-color="#0066ff" stop-opacity="0.25"/>
      <stop offset="100%" stop-color="#0066ff" stop-opacity="0"/>
    </radialGradient>
    <linearGradient id="phGrad" x1="0%" y1="0%" x2="0%" y2="100%">
      <stop offset="0%" stop-color="#2a2a2a"/>
      <stop offset="100%" stop-color="#0a0a0a"/>
    </linearGradient>
    <linearGradient id="screenGrad" x1="0%" y1="0%" x2="0%" y2="100%">
      <stop offset="0%" stop-color="#0a0a14"/>
      <stop offset="100%" stop-color="#050510"/>
    </linearGradient>
    <linearGradient id="barGrad" x1="0%" y1="0%" x2="100%" y2="0%">
      <stop offset="0%" stop-color="#cc0000"/>
      <stop offset="100%" stop-color="#ff4d4d"/>
    </linearGradient>
    <linearGradient id="barGrad2" x1="0%" y1="0%" x2="100%" y2="0%">
      <stop offset="0%" stop-color="#cc0000"/>
      <stop offset="100%" stop-color="#ff4d4d"/>
    </linearGradient>
  </defs>

  <rect width="800" height="600" fill="url(#nhbg)"/>
  <rect width="800" height="600" fill="url(#nhglow1)"/>
  <rect width="800" height="600" fill="url(#nhglow2)"/>

  <g opacity="0.15">
    <line x1="0" y1="100" x2="800" y2="100" stroke="#fff" stroke-width="1"/>
    <line x1="0" y1="200" x2="800" y2="200" stroke="#fff" stroke-width="1"/>
    <line x1="0" y1="300" x2="800" y2="300" stroke="#fff" stroke-width="1"/>
    <line x1="0" y1="400" x2="800" y2="400" stroke="#fff" stroke-width="1"/>
    <line x1="0" y1="500" x2="800" y2="500" stroke="#fff" stroke-width="1"/>
    <line x1="200" y1="0" x2="200" y2="600" stroke="#fff" stroke-width="1"/>
    <line x1="400" y1="0" x2="400" y2="600" stroke="#fff" stroke-width="1"/>
    <line x1="600" y1="0" x2="600" y2="600" stroke="#fff" stroke-width="1"/>
  </g>

  <g transform="translate(550, 80)" opacity="0.6">
    <circle r="180" fill="none" stroke="#cc0000" stroke-width="1" opacity="0.3"/>
    <circle r="140" fill="none" stroke="#cc0000" stroke-width="1" opacity="0.4"/>
    <circle r="100" fill="none" stroke="#cc0000" stroke-width="1" opacity="0.5"/>
    <circle r="60" fill="#cc0000" opacity="0.4"/>
    <circle r="60" fill="none" stroke="#fff" stroke-width="1" opacity="0.6"/>
  </g>

  <g transform="translate(120, 200)" opacity="0.5">
    <line x1="0" y1="0" x2="100" y2="0" stroke="#cc0000" stroke-width="2"/>
    <line x1="0" y1="40" x2="80" y2="40" stroke="#fff" stroke-width="1" opacity="0.4"/>
    <line x1="0" y1="60" x2="120" y2="60" stroke="#fff" stroke-width="1" opacity="0.3"/>
    <line x1="0" y1="80" x2="60" y2="80" stroke="#fff" stroke-width="1" opacity="0.3"/>
    <line x1="0" y1="120" x2="140" y2="120" stroke="#cc0000" stroke-width="1.5" opacity="0.6"/>
    <line x1="0" y1="140" x2="100" y2="140" stroke="#fff" stroke-width="1" opacity="0.3"/>
    <line x1="0" y1="160" x2="120" y2="160" stroke="#fff" stroke-width="1" opacity="0.3"/>
    <line x1="0" y1="180" x2="80" y2="180" stroke="#fff" stroke-width="1" opacity="0.3"/>
  </g>

  <g transform="translate(220, 480)" opacity="0.7">
    <rect x="0" y="0" width="240" height="8" rx="4" fill="url(#barGrad)"/>
    <rect x="0" y="20" width="180" height="4" rx="2" fill="#fff" opacity="0.3"/>
    <rect x="0" y="32" width="220" height="4" rx="2" fill="#fff" opacity="0.2"/>
    <rect x="0" y="44" width="140" height="4" rx="2" fill="#fff" opacity="0.2"/>
  </g>

  <g transform="translate(680, 380)" opacity="0.6">
    <circle r="40" fill="none" stroke="#fff" stroke-width="1" opacity="0.4"/>
    <circle r="28" fill="#cc0000" opacity="0.5"/>
    <path d="M -10 0 L -4 6 L 10 -8" stroke="#fff" stroke-width="2" fill="none" stroke-linecap="round" stroke-linejoin="round"/>
  </g>

  <g transform="translate(80, 60)" opacity="0.7">
    <rect x="0" y="0" width="60" height="60" rx="14" fill="rgba(204,0,0,0.15)" stroke="#cc0000" stroke-width="1.5"/>
    <path d="M 18 30 L 28 40 L 44 22" stroke="#cc0000" stroke-width="3" fill="none" stroke-linecap="round" stroke-linejoin="round"/>
  </g>

  <g transform="translate(70, 460)" opacity="0.5">
    <rect x="0" y="0" width="50" height="50" rx="10" fill="none" stroke="#fff" stroke-width="1.5"/>
    <circle cx="25" cy="25" r="10" fill="#fff" opacity="0.3"/>
  </g>
</svg>