<svg xmlns="http://www.w3.org/2000/svg" viewBox="0 0 800 450" preserveAspectRatio="xMidYMid slice">
  <defs>
    <linearGradient id="n1" x1="0%" y1="0%" x2="100%" y2="100%">
      <stop offset="0%" stop-color="#1a1a2e"/>
      <stop offset="100%" stop-color="#0a0a0a"/>
    </linearGradient>
    <linearGradient id="n1b" x1="0%" y1="0%" x2="100%" y2="0%">
      <stop offset="0%" stop-color="#cc0000"/>
      <stop offset="100%" stop-color="#ff4d4d"/>
    </linearGradient>
  </defs>
  <rect width="800" height="450" fill="url(#n1)"/>
  <g opacity="0.3" stroke="rgba(255,255,255,0.1)" stroke-width="1" fill="none">
    <line x1="0" y1="100" x2="800" y2="100"/>
    <line x1="0" y1="200" x2="800" y2="200"/>
    <line x1="0" y1="300" x2="800" y2="300"/>
    <line x1="0" y1="400" x2="800" y2="400"/>
    <line x1="200" y1="0" x2="200" y2="450"/>
    <line x1="400" y1="0" x2="400" y2="450"/>
    <line x1="600" y1="0" x2="600" y2="450"/>
  </g>
  <circle cx="600" cy="150" r="80" fill="url(#n1b)" opacity="0.4"/>
  <rect x="100" y="200" width="280" height="40" rx="4" fill="url(#n1b)" opacity="0.7"/>
  <rect x="100" y="260" width="380" height="20" rx="4" fill="rgba(255,255,255,0.2)"/>
  <rect x="100" y="290" width="320" height="20" rx="4" fill="rgba(255,255,255,0.15)"/>
  <rect x="100" y="320" width="200" height="20" rx="4" fill="rgba(255,255,255,0.1)"/>
</svg>