<svg xmlns="http://www.w3.org/2000/svg" viewBox="0 0 1200 600" preserveAspectRatio="xMidYMid slice">
  <defs>
    <linearGradient id="sh" x1="0%" y1="0%" x2="100%" y2="100%">
      <stop offset="0%" stop-color="#000000"/>
      <stop offset="100%" stop-color="#1a1a2e"/>
    </linearGradient>
  </defs>
  <rect width="1200" height="600" fill="url(#sh)"/>
  <g opacity="0.3">
    <rect x="100" y="100" width="200" height="200" rx="20" fill="none" stroke="#cc0000" stroke-width="1"/>
    <rect x="350" y="100" width="200" height="200" rx="20" fill="none" stroke="#cc0000" stroke-width="1"/>
    <rect x="600" y="100" width="200" height="200" rx="20" fill="none" stroke="#cc0000" stroke-width="1"/>
    <rect x="850" y="100" width="200" height="200" rx="20" fill="none" stroke="#cc0000" stroke-width="1"/>
    <rect x="225" y="350" width="200" height="200" rx="20" fill="none" stroke="#cc0000" stroke-width="1"/>
    <rect x="475" y="350" width="200" height="200" rx="20" fill="none" stroke="#cc0000" stroke-width="1"/>
    <rect x="725" y="350" width="200" height="200" rx="20" fill="none" stroke="#cc0000" stroke-width="1"/>
  </g>
  <g fill="#cc0000" opacity="0.7">
    <circle cx="200" cy="200" r="8"/>
    <circle cx="450" cy="200" r="8"/>
    <circle cx="700" cy="200" r="8"/>
    <circle cx="950" cy="200" r="8"/>
    <circle cx="325" cy="450" r="8"/>
    <circle cx="575" cy="450" r="8"/>
    <circle cx="825" cy="450" r="8"/>
  </g>
</svg>